{"title":"Naruto Shippuuden - 339 [720p] [ENG-SUBBED] [GWC].mkv","uid":9229094,"size":90021335,"categoryP":"video","categoryS":"tv_shows","magnet":"?xt=urn:btih:3cb982d2cd31f7151fbfca11f116ffdd974d8653&amp;dn=Naruto+Shippuuden+-+339+%5B720p%5D+%5BENG-SUBBED%5D+%5BGWC%5D.mkv&amp;tr=udp%3A%2F%2Ftracker.openbittorrent.com%3A80&amp;tr=udp%3A%2F%2Fopen.demonii.com%3A1337&amp;tr=udp%3A%2F%2Ftracker.coppersurfer.tk%3A6969&amp;tr=udp%3A%2F%2Fexodus.desync.com%3A6969","seeders":3,"leechers":0,"uploader":"canc232","files":1,"time":1385048313,"description":"Naruto Shippuuden - 339 [720p] [ENG-SUBBED] [GWC] \nNaruto Shippuden Ep 339 : I Will Love You Always!\n\n\nTHUMBNAIL IMAGE : &lt;a href=&quot;\nhttp://img577.imageshack.us/img577/539/wisi.jpg&quot; rel=&quot;nofollow&quot; target=&quot;_NEW&quot;&gt;\nhttp://img577.imageshack.us/img577/539/wisi.jpg&lt;/a&gt;\n\n\nMEDIA INFO :\n\nGeneral \nFormat : Matroska \nFormat version : Version 4 / Version 2 \nFile size : 85.9 MiB \nDuration : 21mn 39s \nOverall bit rate mode : Variable \nOverall bit rate : 554 Kbps\nWriting application : mkvmerge v6.5.0 ('Isn't she lovely')\n\nVideo\nFormat : AVC\nFormat profile : &lt;a class=&quot;__cf_email__&quot; href=&quot;/cdn-cgi/l/email-protection&quot; data-cfemail=&quot;551d3c323d1519617b65&quot;&gt;[email&amp;#160;protected]&lt;/a&gt;&lt;script cf-hash='f9e31' type=&quot;text/javascript&quot;&gt;\n/* &lt;![CDATA[ */!function(){try{var t=&quot;currentScript&quot;in document?document.currentScript:function(){for(var t=document.getElementsByTagName(&quot;script&quot;),e=t.length;e--;)if(t[e].getAttribute(&quot;cf-hash&quot;))return t[e]}();if(t&amp;&amp;t.previousSibling){var e,r,n,i,c=t.previousSibling,a=c.getAttribute(&quot;data-cfemail&quot;);if(a){for(e=&quot;&quot;,r=parseInt(a.substr(0,2),16),n=2;a.length-n;n+=2)i=parseInt(a.substr(n,2),16)^r,e+=String.fromCharCode(i);e=document.createTextNode(e),c.parentNode.replaceChild(e,c)}}}catch(u){}}();/* ]]&gt; */&lt;/script&gt; \nFormat settings, CABAC : Yes \nFormat settings, ReFrames : 11 frames\nDuration : 21mn 39s \nBit rate : 510 Kbps \nWidth : 1 280 pixels \nHeight : 720 pixels \nDisplay aspect ratio : 16:9 \nFrame rate mode : Constant \nFrame rate : 23.976 fps\nStream size : 75.5 MiB (88%) \nTitle : Naruto Shippuuden - 339 [720p] [ENG-SUBBED] [GWC] \nWriting library : x264 core\n\nAudio \nFormat : Vorbis\nDuration : 21mn 39s \nBit rate mode : Variable\nChannel(s) : 2 channels \nSampling rate : 44.1 KHz\nStream size : 8.68 MiB (10%)\nWriting library : aoTuV \n\nText \nFormat : ASS\nCodec ID/Info : Advanced Sub Station Alpha\nTitle : [GWC] \nLanguage : English","torrent":{"xt":"urn:btih:3cb982d2cd31f7151fbfca11f116ffdd974d8653","amp;dn":"Naruto+Shippuuden+-+339+%5B720p%5D+%5BENG-SUBBED%5D+%5BGWC%5D.mkv","amp;tr":["udp%3A%2F%2Ftracker.openbittorrent.com%3A80","udp%3A%2F%2Fopen.demonii.com%3A1337","udp%3A%2F%2Ftracker.coppersurfer.tk%3A6969","udp%3A%2F%2Fexodus.desync.com%3A6969"],"infoHash":"3cb982d2cd31f7151fbfca11f116ffdd974d8653","infoHashBuffer":{"type":"Buffer","data":[60,185,130,210,205,49,247,21,31,191,202,17,241,22,255,221,151,77,134,83]},"announce":[],"urlList":[]}}